<?xml version="1.0" encoding="UTF-8" standalone="no"?>
<!-- Created with Inkscape (http://www.inkscape.org/) -->

<svg
   xmlns:dc="http://purl.org/dc/elements/1.1/"
   xmlns:cc="http://creativecommons.org/ns#"
   xmlns:rdf="http://www.w3.org/1999/02/22-rdf-syntax-ns#"
   xmlns:svg="http://www.w3.org/2000/svg"
   xmlns="http://www.w3.org/2000/svg"
   xmlns:sodipodi="http://sodipodi.sourceforge.net/DTD/sodipodi-0.dtd"
   xmlns:inkscape="http://www.inkscape.org/namespaces/inkscape"
   width="40.840206mm"
   height="39.726276mm"
   viewBox="0 0 40.840206 39.726277"
   version="1.1"
   id="svg8"
   inkscape:version="0.92.3 (2405546, 2018-03-11)"
   sodipodi:docname="instructor_icon.svg">
  <defs
     id="defs2" />
  <sodipodi:namedview
     id="base"
     pagecolor="#ffffff"
     bordercolor="#666666"
     borderopacity="1.0"
     inkscape:pageopacity="0.0"
     inkscape:pageshadow="2"
     inkscape:zoom="3.959798"
     inkscape:cx="76.771901"
     inkscape:cy="52.835037"
     inkscape:document-units="mm"
     inkscape:current-layer="layer1"
     showgrid="false"
     fit-margin-top="1"
     fit-margin-left="1"
     fit-margin-right="1"
     fit-margin-bottom="1"
     inkscape:window-width="1920"
     inkscape:window-height="1017"
     inkscape:window-x="-8"
     inkscape:window-y="-8"
     inkscape:window-maximized="1" />
  <metadata
     id="metadata5">
    <rdf:RDF>
      <cc:Work
         rdf:about="">
        <dc:format>image/svg+xml</dc:format>
        <dc:type
           rdf:resource="http://purl.org/dc/dcmitype/StillImage" />
        <dc:title></dc:title>
      </cc:Work>
    </rdf:RDF>
  </metadata>
  <g
     inkscape:label="Layer 1"
     inkscape:groupmode="layer"
     id="layer1"
     transform="translate(-34.563208,-23.066806)">
    <path
       style="fill:#000000;stroke-width:0.35378879"
       d="m 35.782977,53.489426 c -0.251786,-4.970229 -0.291085,-8.629828 -0.09789,-9.116149 0.468807,-1.180131 2.377356,-2.5915 3.865793,-2.858748 0.709315,-0.127361 2.325738,-0.151961 3.592052,-0.05468 1.971003,0.151422 2.862297,0.478905 6.192531,2.275288 l 3.890144,2.098408 1.510471,-2.317088 c 0.830759,-1.274398 1.779075,-2.667526 2.107369,-3.09584 1.031929,-1.346327 3.094577,-0.835613 3.094577,0.766218 0,1.154232 -4.783985,8.302729 -5.635574,8.42099 -0.402971,0.05596 -2.163899,-0.528103 -3.91317,-1.297922 -1.749273,-0.76982 -3.226961,-1.399671 -3.283753,-1.399671 -0.05679,0 -0.01667,3.348642 0.08916,7.441425 l 0.192418,7.441427 H 41.79537 36.203636 Z m 15.74703,-9.199948 c -0.546973,-0.284001 -0.994496,-0.589267 -0.994496,-0.678369 0,-0.0891 0.8389,-0.162001 1.864223,-0.162001 1.841317,0 1.856182,0.0085 1.209674,0.692224 -0.77042,0.814766 -0.792494,0.816338 -2.079401,0.148146 z m 7.753319,-0.06161 c 0.110001,-0.547892 0.786107,-0.61467 7.084388,-0.699719 l 6.962778,-0.09402 -0.0964,-9.077968 -0.0964,-9.077967 -14.013355,-0.09059 -14.013356,-0.09059 v 2.809997 c 0,2.420152 -0.07936,2.78085 -0.57203,2.599911 -0.314617,-0.115549 -0.640088,-0.210087 -0.723269,-0.210087 -0.08318,0 -0.151241,-1.401757 -0.151241,-3.115015 V 24.066806 H 59.033926 74.403413 V 34.45019 44.833576 h -7.620852 c -7.063191,0 -7.611953,-0.04432 -7.499241,-0.605698 z M 43.820275,40.641512 c -0.136667,-0.211646 -0.02422,-0.520762 0.249884,-0.686925 0.774024,-0.469217 1.040827,-0.371934 1.040827,0.379509 0,0.738886 -0.877178,0.947808 -1.290711,0.307416 z m -5.19642,-1.285972 c -2.352175,-1.207341 -3.221237,-4.244142 -1.892941,-6.614588 1.756051,-3.133804 6.876971,-3.230883 8.97242,-0.170091 0.830304,1.212812 0.830304,3.930265 0,5.143077 -1.475634,2.155437 -4.646115,2.890614 -7.079479,1.641602 z m 21.455887,-1.486606 c 0.528557,-0.833327 1.482773,-2.410707 2.120477,-3.505288 1.0329,-1.772909 1.727455,-2.476001 1.709551,-1.730565 -0.01379,0.574246 -3.846136,6.449542 -4.30172,6.594884 -0.291267,0.09292 -0.100351,-0.457156 0.471692,-1.359031 z"
       id="path22"
       inkscape:connector-curvature="0" />
  </g>
</svg>
